<svg xmlns="http://www.w3.org/2000/svg" viewBox="0 0 520 760">
  <defs>
    <linearGradient id="body" x1="0" y1="0" x2="0" y2="1">
      <stop offset="0%" stop-color="#ffe68f"/>
      <stop offset="100%" stop-color="#ffd056"/>
    </linearGradient>
  </defs>
  <ellipse cx="260" cy="640" rx="115" ry="55" fill="#d6942f" opacity="0.35"/>
  <ellipse cx="260" cy="360" rx="175" ry="220" fill="url(#body)" stroke="#e2a133" stroke-width="10"/>
  <ellipse cx="260" cy="460" rx="95" ry="115" fill="#fff7d8" opacity="0.85"/>
  <ellipse cx="165" cy="250" rx="45" ry="70" fill="#ffd96d" stroke="#e2a133" stroke-width="8"/>
  <ellipse cx="355" cy="250" rx="45" ry="70" fill="#ffd96d" stroke="#e2a133" stroke-width="8"/>
  <path d="M175 330 Q200 350 225 330" stroke="#2d2a3d" stroke-width="10" fill="none" stroke-linecap="round"/>
  <path d="M295 330 Q320 350 345 330" stroke="#2d2a3d" stroke-width="10" fill="none" stroke-linecap="round"/>
  <path d="M228 415 Q260 440 292 415" stroke="#c8708f" stroke-width="12" fill="none" stroke-linecap="round"/>
  <circle cx="170" cy="390" r="16" fill="#ffb1c9" opacity="0.9"/>
  <circle cx="350" cy="390" r="16" fill="#ffb1c9" opacity="0.9"/>
  <ellipse cx="145" cy="520" rx="42" ry="58" fill="#ffd56a" stroke="#e2a133" stroke-width="8"/>
  <ellipse cx="375" cy="520" rx="42" ry="58" fill="#ffd56a" stroke="#e2a133" stroke-width="8"/>
  <ellipse cx="210" cy="610" rx="52" ry="36" fill="#ffd56a" stroke="#e2a133" stroke-width="8"/>
  <ellipse cx="310" cy="610" rx="52" ry="36" fill="#ffd56a" stroke="#e2a133" stroke-width="8"/>
  <path d="M86 450 Q38 520 78 592" stroke="#e2a133" stroke-width="16" fill="none" stroke-linecap="round"/>
  <text x="384" y="180" font-size="56" fill="#b9e7ff" font-family="Verdana">Z</text>
  <text x="430" y="140" font-size="42" fill="#c8efff" font-family="Verdana">z</text>
</svg>
