<svg xmlns="http://www.w3.org/2000/svg" viewBox="0 0 1920 1080" preserveAspectRatio="xMidYMid slice">
  <defs>
    <linearGradient id="nightSky" x1="0" y1="0" x2="0" y2="1">
      <stop offset="0%" stop-color="#1b1646"/>
      <stop offset="55%" stop-color="#2a2766"/>
      <stop offset="100%" stop-color="#34377c"/>
    </linearGradient>
    <linearGradient id="street" x1="0" y1="0" x2="0" y2="1">
      <stop offset="0%" stop-color="#2d3355"/>
      <stop offset="100%" stop-color="#191d38"/>
    </linearGradient>
    <linearGradient id="glowPink" x1="0" y1="0" x2="1" y2="1">
      <stop offset="0%" stop-color="#ff63d6"/>
      <stop offset="100%" stop-color="#ff90f3"/>
    </linearGradient>
    <linearGradient id="glowBlue" x1="0" y1="0" x2="1" y2="1">
      <stop offset="0%" stop-color="#33d5ff"/>
      <stop offset="100%" stop-color="#73a5ff"/>
    </linearGradient>
  </defs>
  <rect width="1920" height="1080" fill="url(#nightSky)"/>
  <g opacity="0.65">
    <rect x="80" y="230" width="340" height="500" fill="#1f1f3c"/>
    <rect x="350" y="180" width="420" height="560" fill="#24244a"/>
    <rect x="710" y="260" width="380" height="470" fill="#202041"/>
    <rect x="1030" y="210" width="320" height="520" fill="#1a1b3f"/>
    <rect x="1280" y="170" width="470" height="560" fill="#1f2047"/>
  </g>
  <rect x="0" y="740" width="1920" height="340" fill="url(#street)"/>
  <path d="M0 820 L1920 820" stroke="#5ad8ff" stroke-width="4" opacity="0.35"/>
  <path d="M0 875 L1920 875" stroke="#ff8ce8" stroke-width="4" opacity="0.2"/>
  <g>
    <rect x="160" y="320" width="190" height="64" rx="12" fill="url(#glowPink)" opacity="0.95"/>
    <rect x="580" y="310" width="210" height="70" rx="12" fill="url(#glowBlue)" opacity="0.95"/>
    <rect x="1120" y="300" width="200" height="65" rx="12" fill="url(#glowPink)" opacity="0.9"/>
    <rect x="1460" y="285" width="250" height="70" rx="12" fill="url(#glowBlue)" opacity="0.92"/>
  </g>
  <g fill="#cce4ff" opacity="0.6">
    <circle cx="210" cy="160" r="2"/>
    <circle cx="370" cy="90" r="2"/>
    <circle cx="520" cy="120" r="2"/>
    <circle cx="700" cy="70" r="2"/>
    <circle cx="960" cy="110" r="2"/>
    <circle cx="1200" cy="80" r="2"/>
    <circle cx="1520" cy="130" r="2"/>
    <circle cx="1780" cy="85" r="2"/>
  </g>
  <polygon points="930,740 990,740 1080,1080 840,1080" fill="#232949"/>
  <polygon points="965,740 980,740 990,1080 955,1080" fill="#7dd8ff" opacity="0.35"/>
</svg>
