<svg xmlns="http://www.w3.org/2000/svg" viewBox="0 0 1920 1080" preserveAspectRatio="xMidYMid slice">
  <defs>
    <linearGradient id="sky" x1="0" y1="0" x2="0" y2="1">
      <stop offset="0%" stop-color="#10153e"/>
      <stop offset="58%" stop-color="#2c2f78"/>
      <stop offset="100%" stop-color="#3e4e96"/>
    </linearGradient>
    <linearGradient id="river" x1="0" y1="0" x2="1" y2="1">
      <stop offset="0%" stop-color="#65b6ff"/>
      <stop offset="50%" stop-color="#7d95ff"/>
      <stop offset="100%" stop-color="#7de0ff"/>
    </linearGradient>
    <radialGradient id="moonGlow" cx="0.5" cy="0.5" r="0.6">
      <stop offset="0%" stop-color="#fff8d9"/>
      <stop offset="100%" stop-color="#fff8d9" stop-opacity="0"/>
    </radialGradient>
  </defs>
  <rect width="1920" height="1080" fill="url(#sky)"/>
  <circle cx="1460" cy="200" r="95" fill="#fff9dc"/>
  <circle cx="1460" cy="200" r="220" fill="url(#moonGlow)"/>
  <g fill="#eef5ff" opacity="0.85">
    <circle cx="160" cy="80" r="2"/>
    <circle cx="280" cy="210" r="2"/>
    <circle cx="370" cy="130" r="3"/>
    <circle cx="510" cy="175" r="2"/>
    <circle cx="620" cy="90" r="2"/>
    <circle cx="760" cy="170" r="3"/>
    <circle cx="870" cy="100" r="2"/>
    <circle cx="1040" cy="190" r="2"/>
    <circle cx="1180" cy="110" r="3"/>
    <circle cx="1320" cy="160" r="2"/>
    <circle cx="1600" cy="120" r="2"/>
    <circle cx="1780" cy="190" r="3"/>
  </g>
  <path d="M0 710 C300 630 660 740 960 680 C1300 620 1580 710 1920 640 L1920 1080 L0 1080 Z" fill="#273468"/>
  <path d="M0 760 C260 690 620 780 980 730 C1320 680 1640 760 1920 710 L1920 1080 L0 1080 Z" fill="url(#river)" opacity="0.88"/>
  <path d="M0 820 C300 780 720 840 1080 800 C1430 760 1730 820 1920 790" stroke="#c0f4ff" stroke-width="14" opacity="0.36"/>
  <path d="M0 860 C300 820 720 885 1080 842 C1430 800 1730 860 1920 836" stroke="#ffe2ff" stroke-width="10" opacity="0.22"/>
  <g opacity="0.7">
    <ellipse cx="290" cy="820" rx="120" ry="55" fill="#6a7ac0"/>
    <ellipse cx="1640" cy="860" rx="140" ry="65" fill="#6074bc"/>
  </g>
</svg>
